<svg width="574" height="534" viewBox="0 0 574 534" fill="none" xmlns="http://www.w3.org/2000/svg">
<path d="M400.24 200.334H548.333C562.325 200.334 573.667 211.676 573.667 225.667V360.561C573.667 411.982 531.982 453.667 480.56 453.667H480.12C428.699 453.674 387.007 411.995 387 360.574V213.574C387 206.262 392.928 200.334 400.24 200.334V200.334Z" fill="#5059C9"/>
<path d="M500.332 173.666C533.469 173.666 560.332 146.803 560.332 113.666C560.332 80.5289 533.469 53.666 500.332 53.666C467.195 53.666 440.332 80.5289 440.332 113.666C440.332 146.803 467.195 173.666 500.332 173.666Z" fill="#5059C9"/>
<path d="M313.667 173.667C361.531 173.667 400.333 134.865 400.333 87.0007C400.333 39.136 361.531 0.333984 313.667 0.333984C265.802 0.333984 227 39.136 227 87.0007C227 134.865 265.802 173.667 313.667 173.667Z" fill="#7B83EB"/>
<path d="M429.226 200.334H184.772C170.948 200.676 160.012 212.149 160.333 225.974V379.827C158.402 462.79 224.038 531.637 306.999 533.667C389.96 531.637 455.596 462.79 453.666 379.827V225.974C453.986 212.149 443.05 200.676 429.226 200.334V200.334Z" fill="#7B83EB"/>
<path opacity="0.1" d="M320.333 200.334V415.934C320.267 425.821 314.276 434.703 305.133 438.467C302.222 439.698 299.094 440.333 295.933 440.334H172.067C170.333 435.934 168.733 431.534 167.4 427.001C162.732 411.701 160.351 395.796 160.333 379.801V225.934C160.013 212.131 170.931 200.676 184.733 200.334H320.333Z" fill="black"/>
<path opacity="0.2" d="M307 200.334V429.267C307 432.428 306.365 435.556 305.133 438.467C301.369 447.61 292.487 453.601 282.6 453.667H178.333C176.067 449.267 173.933 444.867 172.067 440.334C170.2 435.801 168.733 431.534 167.4 427.001C162.732 411.701 160.351 395.796 160.333 379.801V225.934C160.013 212.131 170.931 200.676 184.733 200.334H307Z" fill="black"/>
<path opacity="0.2" d="M307 200.334V402.601C306.898 416.034 296.033 426.899 282.6 427.001H167.4C162.732 411.701 160.351 395.796 160.333 379.801V225.934C160.013 212.131 170.931 200.676 184.733 200.334H307Z" fill="black"/>
<path opacity="0.2" d="M293.666 200.334V402.601C293.565 416.034 282.7 426.899 269.266 427.001H167.4C162.732 411.701 160.351 395.796 160.333 379.801V225.934C160.013 212.131 170.931 200.676 184.733 200.334H293.666Z" fill="black"/>
<path opacity="0.1" d="M320.334 131.4V173.4C318.067 173.533 315.934 173.666 313.667 173.666C311.4 173.666 309.267 173.533 307 173.4C302.5 173.101 298.036 172.387 293.667 171.266C266.667 164.872 244.361 145.937 233.667 120.333C231.827 116.033 230.399 111.569 229.4 107H295.934C309.388 107.051 320.283 117.945 320.334 131.4V131.4Z" fill="black"/>
<path opacity="0.2" d="M306.999 144.734V173.4C302.499 173.102 298.035 172.388 293.666 171.267C266.666 164.873 244.36 145.938 233.666 120.334H282.599C296.054 120.385 306.948 131.279 306.999 144.734Z" fill="black"/>
<path opacity="0.2" d="M306.999 144.734V173.4C302.499 173.102 298.035 172.388 293.666 171.267C266.666 164.873 244.36 145.938 233.666 120.334H282.599C296.054 120.385 306.948 131.279 306.999 144.734Z" fill="black"/>
<path opacity="0.2" d="M293.666 144.734V171.267C266.666 164.873 244.36 145.938 233.666 120.334H269.266C282.721 120.385 293.615 131.28 293.666 144.734Z" fill="black"/>
<path d="M24.7738 120.334H269.227C282.725 120.334 293.667 131.276 293.667 144.774V389.227C293.667 402.725 282.725 413.667 269.227 413.667H24.7738C11.276 413.667 0.333984 402.725 0.333984 389.227V144.774C0.333984 131.276 11.2762 120.334 24.7738 120.334Z" fill="url(#paint0_linear)"/>
<path d="M211.32 213.374H162.453V346.44H131.32V213.374H82.6797V187.561H211.32V213.374Z" fill="white"/>
<defs>
<linearGradient id="paint0_linear" x1="51.2919" y1="101.237" x2="242.709" y2="432.764" gradientUnits="userSpaceOnUse">
<stop stop-color="#5A62C3"/>
<stop offset="0.5" stop-color="#4D55BD"/>
<stop offset="1" stop-color="#3940AB"/>
</linearGradient>
</defs>
</svg>
